<?xml version="1.0" encoding="UTF-8" standalone="no"?>
<!-- Created with Inkscape (http://www.inkscape.org/) -->

<svg
   xmlns:dc="http://purl.org/dc/elements/1.1/"
   xmlns:cc="http://creativecommons.org/ns#"
   xmlns:rdf="http://www.w3.org/1999/02/22-rdf-syntax-ns#"
   xmlns:svg="http://www.w3.org/2000/svg"
   xmlns="http://www.w3.org/2000/svg"
   xmlns:sodipodi="http://sodipodi.sourceforge.net/DTD/sodipodi-0.dtd"
   xmlns:inkscape="http://www.inkscape.org/namespaces/inkscape"
   width="210mm"
   height="210mm"
   viewBox="0 0 210 210"
   version="1.1"
   id="svg8"
   inkscape:version="0.92.4 (f8dce91, 2019-08-02)"
   sodipodi:docname="logoQuestionmark.svg">
  <defs
     id="defs2" />
  <sodipodi:namedview
     id="base"
     pagecolor="#ffffff"
     bordercolor="#666666"
     borderopacity="1.0"
     inkscape:pageopacity="0.0"
     inkscape:pageshadow="2"
     inkscape:zoom="0.7"
     inkscape:cx="80.94434"
     inkscape:cy="505.89767"
     inkscape:document-units="mm"
     inkscape:current-layer="layer1"
     showgrid="false"
     inkscape:window-width="2493"
     inkscape:window-height="1385"
     inkscape:window-x="3907"
     inkscape:window-y="27"
     inkscape:window-maximized="1" />
  <metadata
     id="metadata5">
    <rdf:RDF>
      <cc:Work
         rdf:about="">
        <dc:format>image/svg+xml</dc:format>
        <dc:type
           rdf:resource="http://purl.org/dc/dcmitype/StillImage" />
        <dc:title></dc:title>
      </cc:Work>
    </rdf:RDF>
  </metadata>
  <g
     inkscape:label="Layer 1"
     inkscape:groupmode="layer"
     id="layer1"
     transform="translate(0,-87)">
    <path
       style="fill:#000000;stroke-width:0.26458332"
       d="m 93.071783,285.64832 c -10.6681,-1.72213 -19.18154,-4.42834 -28.59173,-9.08859 -21.78971,-10.791 -38.92641,-29.83396 -47.40585,-52.67922 -2.69606,-7.26369 -4.56233,-15.1805 -5.55108,-23.54792 -0.41792,-3.53674 -0.41698,-15.8932 0.002,-19.70875 2.99975,-27.35011 16.57087,-51.0522 38.76436,-67.70236 11.68385,-8.76553 26.24666,-14.92976 41.44582,-17.543417 3.38007,-0.581239 4.21833,-0.614222 15.610417,-0.614222 11.39208,0 12.23034,0.03298 15.61041,0.614222 20.44742,3.516151 38.03588,12.628847 52.66033,27.283647 12.99363,13.02061 21.93959,29.41553 25.80429,47.29053 3.10671,14.36919 2.8638,30.06507 -0.67948,43.90559 -5.46093,21.33112 -17.43451,39.42618 -35.18722,53.17667 -11.81341,9.15017 -26.07994,15.39057 -41.80417,18.28581 -3.75299,0.69102 -4.09549,0.70759 -15.74271,0.76166 -10.485307,0.0487 -12.267697,-0.003 -14.934897,-0.43365 z M 114.0921,270.96195 c 6.97691,-0.44782 15.74116,-2.50741 23.04898,-5.41648 32.22513,-12.82805 52.69131,-44.70477 50.88823,-79.26004 -0.84731,-16.23823 -6.14667,-30.9637 -15.91928,-44.23532 -3.08242,-4.18606 -8.99601,-10.38926 -13.30335,-13.95485 -10.32854,-8.54992 -22.90366,-14.49573 -36.01856,-17.0304 -5.7083,-1.10322 -7.21334,-1.21982 -15.70748,-1.21691 -7.925187,0.003 -8.542207,0.0391 -12.567707,0.74082 -17.48282,3.04762 -32.13186,10.5585 -44.28517,22.70594 -12.49071,12.48468 -20.26053,28.00293 -22.96721,45.87121 -0.69084,4.56059 -0.69044,18.21623 6.6e-4,22.62188 3.28224,20.92376 13.26384,38.3909 29.54212,51.6968 4.91169,4.01483 13.54852,9.13656 19.58564,11.6145 11.95901,4.90857 23.824487,6.75365 37.703127,5.86285 z M 99.275433,246.72191 c -2.10455,-0.39843 -4.901,-1.88793 -6.5295,-3.47785 -2.963,-2.89284 -4.36582,-7.3973 -3.70842,-11.90772 1.10423,-7.5761 8.06623,-12.27935 16.323717,-11.02765 7.08609,1.07413 11.22666,5.42443 11.68297,12.27473 0.4705,7.06325 -3.63493,12.63005 -10.36043,14.04836 -2.05518,0.43341 -5.38137,0.47387 -7.408337,0.0901 z m -7.44088,-34.28463 c -0.3298,-2.10119 -0.24057,-9.83731 0.13809,-11.9724 1.02672,-5.78908 3.88552,-11.79834 7.65889,-16.0991 0.810357,-0.92362 3.539437,-3.52506 6.064607,-5.78098 7.13846,-6.37728 8.77964,-8.65942 9.00308,-12.51927 0.28351,-4.89743 -1.48484,-7.87013 -5.27667,-8.8704 -6.24861,-1.64835 -15.247137,0.55244 -22.725597,5.55807 -1.20279,0.80507 -2.2778,1.46377 -2.38891,1.46377 -0.11111,0 -2.19622,-3.83977 -4.63357,-8.53282 -2.43736,-4.69304 -4.55614,-8.73575 -4.7084,-8.9838 -0.15227,-0.24804 -0.22183,-0.49588 -0.15458,-0.55074 1.06137,-0.86591 5.37414,-3.44944 7.65395,-4.58503 6.21999,-3.09826 12.20747,-4.79989 18.926657,-5.37895 8.47273,-0.73018 15.46741,0.0318 21.44171,2.33571 6.23623,2.40494 11.71318,7.59254 14.12002,13.37402 1.43278,3.44169 1.93384,6.30225 1.94973,11.13098 0.0212,6.45551 -0.7699,10.26678 -3.11218,14.99295 -2.61417,5.2748 -5.46203,8.56832 -11.51282,13.3145 -2.79696,2.19391 -6.46772,5.8056 -7.80141,7.67588 -2.65247,3.71966 -3.52609,6.34721 -3.76071,11.31094 l -0.15945,3.37344 H 102.2944 92.031823 Z"
       id="path2213"
       inkscape:connector-curvature="0" />
  </g>
</svg>
